<svg width="17" height="16" viewBox="0 0 17 16" fill="none" xmlns="http://www.w3.org/2000/svg">
<path d="M3.21708 7.65718C2.88303 7.65718 2.61222 7.92799 2.61222 8.26204C2.61222 8.5961 2.88302 8.8669 3.21708 8.86691L3.21708 7.65718ZM14.4075 8.26213L14.8352 8.68983C15.0714 8.45361 15.0714 8.07064 14.8352 7.83442L14.4075 8.26213ZM10.1212 3.12038C9.88496 2.88417 9.50198 2.88417 9.26577 3.12038C9.02955 3.35659 9.02955 3.73957 9.26577 3.97578L10.1212 3.12038ZM9.26576 12.5485C9.02955 12.7847 9.02955 13.1677 9.26576 13.4039C9.50198 13.6401 9.88495 13.6401 10.1212 13.4039L9.26576 12.5485ZM3.21708 8.86691L14.4075 8.86699L14.4075 7.65726L3.21708 7.65718L3.21708 8.86691ZM9.26577 3.97578L13.9798 8.68983L14.8352 7.83442L10.1212 3.12038L9.26577 3.97578ZM13.9798 7.83442L9.26576 12.5485L10.1212 13.4039L14.8352 8.68983L13.9798 7.83442Z" fill="white"/>
</svg>
